<svg xmlns="http://www.w3.org/2000/svg" width="32" height="32" viewBox="0 0 100 100" role="img" aria-label="CatalogueMaroc">
  <defs>
    <linearGradient id="logoGradient" x1="0%" y1="0%" x2="100%" y2="100%">
      <stop offset="0%" stop-color="#FFB347"/>
      <stop offset="100%" stop-color="#FF8C00"/>
    </linearGradient>
  </defs>

  <!-- Background rounded square -->
  <rect width="100" height="100" rx="25" fill="url(#logoGradient)" />

  <!-- Storefront Icon -->
  <g transform="translate(28, 28)" stroke="white" stroke-width="6" fill="none" stroke-linecap="round" stroke-linejoin="round">
    <path d="M2 15 L42 15 L38 2 L6 2 Z" fill="white" fill-opacity="0.3" />
    <path d="M6 2 L2 15 M14 2 L12 15 M22 2 L22 15 M30 2 L32 15 M38 2 L42 15" stroke="white" stroke-width="3" />
    <path d="M6 15 L6 40 Q6 44 10 44 L34 44 Q38 44 38 40 L38 15" />
    <path d="M16 44 L16 34 Q16 28 22 28 Q28 28 28 34 L28 44" />
  </g>
</svg>
